<svg viewBox="0 0 330 200" xmlns="http://www.w3.org/2000/svg"><g><g><g><g><g><line x1="80" y1="178" x2="75" y2="178" style="visibility: inherit;" fill="rgb(0, 0, 0)" stroke="rgb(204, 204, 204)" stroke-width="1px"></line><line x1="80" y1="155.75" x2="75" y2="155.75" style="visibility: inherit;" fill="rgb(0, 0, 0)" stroke="rgb(204, 204, 204)" stroke-width="1px"></line><line x1="80" y1="133.5" x2="75" y2="133.5" style="visibility: inherit;" fill="rgb(0, 0, 0)" stroke="rgb(204, 204, 204)" stroke-width="1px"></line><line x1="80" y1="111.25" x2="75" y2="111.25" style="visibility: inherit;" fill="rgb(0, 0, 0)" stroke="rgb(204, 204, 204)" stroke-width="1px"></line><line x1="80" y1="89" x2="75" y2="89" style="visibility: inherit;" fill="rgb(0, 0, 0)" stroke="rgb(204, 204, 204)" stroke-width="1px"></line><line x1="80" y1="66.75" x2="75" y2="66.75" style="visibility: inherit;" fill="rgb(0, 0, 0)" stroke="rgb(204, 204, 204)" stroke-width="1px"></line><line x1="80" y1="44.5" x2="75" y2="44.5" style="visibility: inherit;" fill="rgb(0, 0, 0)" stroke="rgb(204, 204, 204)" stroke-width="1px"></line><line x1="80" y1="22.25" x2="75" y2="22.25" style="visibility: inherit;" fill="rgb(0, 0, 0)" stroke="rgb(204, 204, 204)" stroke-width="1px"></line><line x1="80" y1="0" x2="75" y2="0" style="visibility: inherit;" fill="rgb(0, 0, 0)" stroke="rgb(204, 204, 204)" stroke-width="1px"></line></g><g transform="translate(70, 0)"><text x="0" y="178" dx="0em" dy="0.3em" style="text-anchor: end; visibility: hidden; font-family: &quot;Helvetica Neue&quot;, sans-serif; font-size: 12px; font-weight: 200;" fill="rgb(50, 49, 63)" stroke="none" stroke-width="1px">-400</text><text x="0" y="155.75" dx="0em" dy="0.3em" style="text-anchor: end; visibility: inherit; font-family: &quot;Helvetica Neue&quot;, sans-serif; font-size: 12px; font-weight: 200;" fill="rgb(50, 49, 63)" stroke="none" stroke-width="1px">-200</text><text x="0" y="133.5" dx="0em" dy="0.3em" style="text-anchor: end; visibility: hidden; font-family: &quot;Helvetica Neue&quot;, sans-serif; font-size: 12px; font-weight: 200;" fill="rgb(50, 49, 63)" stroke="none" stroke-width="1px">0.00</text><text x="0" y="111.25" dx="0em" dy="0.3em" style="text-anchor: end; visibility: inherit; font-family: &quot;Helvetica Neue&quot;, sans-serif; font-size: 12px; font-weight: 200;" fill="rgb(50, 49, 63)" stroke="none" stroke-width="1px">200</text><text x="0" y="89" dx="0em" dy="0.3em" style="text-anchor: end; visibility: hidden; font-family: &quot;Helvetica Neue&quot;, sans-serif; font-size: 12px; font-weight: 200;" fill="rgb(50, 49, 63)" stroke="none" stroke-width="1px">400</text><text x="0" y="66.75" dx="0em" dy="0.3em" style="text-anchor: end; visibility: inherit; font-family: &quot;Helvetica Neue&quot;, sans-serif; font-size: 12px; font-weight: 200;" fill="rgb(50, 49, 63)" stroke="none" stroke-width="1px">600</text><text x="0" y="44.5" dx="0em" dy="0.3em" style="text-anchor: end; visibility: hidden; font-family: &quot;Helvetica Neue&quot;, sans-serif; font-size: 12px; font-weight: 200;" fill="rgb(50, 49, 63)" stroke="none" stroke-width="1px">800</text><text x="0" y="22.25" dx="0em" dy="0.3em" style="text-anchor: end; visibility: inherit; font-family: &quot;Helvetica Neue&quot;, sans-serif; font-size: 12px; font-weight: 200;" fill="rgb(50, 49, 63)" stroke="none" stroke-width="1px">1.00e+3</text><text x="0" y="0" dx="0em" dy="0.3em" style="text-anchor: end; visibility: hidden; font-family: &quot;Helvetica Neue&quot;, sans-serif; font-size: 12px; font-weight: 200;" fill="rgb(50, 49, 63)" stroke="none" stroke-width="1px">1.20e+3</text></g><line x1="80" y1="0" x2="80" y2="178" fill="rgb(0, 0, 0)" stroke="rgb(204, 204, 204)" stroke-width="1px"></line></g></g><g transform="translate(80, 0)" clip-path="url(#clip_0)"><clipPath id="clip_0"><rect width="250" height="177"></rect></clipPath><g><g><g><line x1="0" y1="0" x2="0" y2="178" fill="rgb(0, 0, 0)" stroke="rgb(60, 60, 60)" stroke-width="1px" opacity="0.25"></line><line x1="20.833333333333332" y1="0" x2="20.833333333333332" y2="178" fill="rgb(0, 0, 0)" stroke="rgb(60, 60, 60)" stroke-width="1px" opacity="0.25"></line><line x1="41.666666666666664" y1="0" x2="41.666666666666664" y2="178" fill="rgb(0, 0, 0)" stroke="rgb(60, 60, 60)" stroke-width="1px" opacity="0.25"></line><line x1="62.5" y1="0" x2="62.5" y2="178" fill="rgb(0, 0, 0)" stroke="rgb(60, 60, 60)" stroke-width="1px" opacity="0.25"></line><line x1="83.33333333333333" y1="0" x2="83.33333333333333" y2="178" fill="rgb(0, 0, 0)" stroke="rgb(60, 60, 60)" stroke-width="1px" opacity="0.25"></line><line x1="104.16666666666667" y1="0" x2="104.16666666666667" y2="178" fill="rgb(0, 0, 0)" stroke="rgb(60, 60, 60)" stroke-width="1px" opacity="0.25"></line><line x1="125" y1="0" x2="125" y2="178" fill="rgb(0, 0, 0)" stroke="rgb(60, 60, 60)" stroke-width="1px" opacity="0.25"></line><line x1="145.83333333333334" y1="0" x2="145.83333333333334" y2="178" fill="rgb(0, 0, 0)" stroke="rgb(60, 60, 60)" stroke-width="1px" opacity="0.25"></line><line x1="166.66666666666666" y1="0" x2="166.66666666666666" y2="178" fill="rgb(0, 0, 0)" stroke="rgb(60, 60, 60)" stroke-width="1px" opacity="0.25"></line><line x1="187.5" y1="0" x2="187.5" y2="178" fill="rgb(0, 0, 0)" stroke="rgb(60, 60, 60)" stroke-width="1px" opacity="0.25"></line><line x1="208.33333333333334" y1="0" x2="208.33333333333334" y2="178" fill="rgb(0, 0, 0)" stroke="rgb(60, 60, 60)" stroke-width="1px" opacity="0.25"></line><line x1="229.16666666666666" y1="0" x2="229.16666666666666" y2="178" fill="rgb(0, 0, 0)" stroke="rgb(60, 60, 60)" stroke-width="1px" opacity="0.25"></line><line x1="250" y1="0" x2="250" y2="178" fill="rgb(0, 0, 0)" stroke="rgb(60, 60, 60)" stroke-width="1px" opacity="0.25"></line></g><g><line x1="0" y1="178" x2="250" y2="178" fill="rgb(0, 0, 0)" stroke="rgb(60, 60, 60)" stroke-width="1px" opacity="0.25"></line><line x1="0" y1="155.75" x2="250" y2="155.75" fill="rgb(0, 0, 0)" stroke="rgb(60, 60, 60)" stroke-width="1px" opacity="0.25"></line><line x1="0" y1="133.5" x2="250" y2="133.5" fill="rgb(0, 0, 0)" stroke="rgb(60, 60, 60)" stroke-width="1px" opacity="0.25"></line><line x1="0" y1="111.25" x2="250" y2="111.25" fill="rgb(0, 0, 0)" stroke="rgb(60, 60, 60)" stroke-width="1px" opacity="0.25"></line><line x1="0" y1="89" x2="250" y2="89" fill="rgb(0, 0, 0)" stroke="rgb(60, 60, 60)" stroke-width="1px" opacity="0.25"></line><line x1="0" y1="66.75" x2="250" y2="66.75" fill="rgb(0, 0, 0)" stroke="rgb(60, 60, 60)" stroke-width="1px" opacity="0.25"></line><line x1="0" y1="44.5" x2="250" y2="44.5" fill="rgb(0, 0, 0)" stroke="rgb(60, 60, 60)" stroke-width="1px" opacity="0.25"></line><line x1="0" y1="22.25" x2="250" y2="22.25" fill="rgb(0, 0, 0)" stroke="rgb(60, 60, 60)" stroke-width="1px" opacity="0.25"></line><line x1="0" y1="0" x2="250" y2="0" fill="rgb(0, 0, 0)" stroke="rgb(60, 60, 60)" stroke-width="1px" opacity="0.25"></line></g></g></g><g><g><line x1="0" y1="133.5" x2="250" y2="133.5" fill="rgb(0, 0, 0)" stroke="rgb(153, 153, 153)" stroke-width="1.5px"></line></g></g><g><g><line x1="20.833333333333332" y1="0" x2="20.833333333333332" y2="178" fill="rgb(0, 0, 0)" stroke="rgb(153, 153, 153)" stroke-width="1.5px"></line></g></g><g><g><g><g><g><path stroke="rgb(0, 153, 136)" stroke-width="2px" d="M20.833333333333332,130.73007195711136L21.041666666666668,130.60182623684406L21.25,132.29260855317725L21.458333333333332,130.78772671045516L21.666666666666668,131.81754148671644L21.875,132.77578900906673L22.083333333333332,132.98514669275073L22.291666666666668,130.45128262885345L22.5,129.21852470164308L22.708333333333332,128.905190475079L22.916666666666664,129.19644640847403L23.125,128.66084423822707L23.333333333333336,131.58212177220304L23.541666666666664,129.96291935001148L23.75,131.11654417966753L23.958333333333336,129.71844881298279L24.166666666666668,129.03126040955297L24.375,128.53908467644706L24.583333333333332,128.0864355809665L24.791666666666668,128.30773953219494L25,127.46608464852295L25.208333333333332,124.426252772805L25.416666666666668,123.3476430097725L25.625,125.89426598262807L25.833333333333332,127.78752813364417L26.041666666666668,125.0063695197661L26.25,127.26341722356352L26.458333333333332,126.66853649912925L26.666666666666668,127.59984781902605L26.875,124.9369285037146L27.083333333333336,126.3875680822303L27.291666666666664,128.81272299148668L27.5,126.10575176102677L27.708333333333336,126.99208340050721L27.916666666666664,127.95068491319816L28.125,122.29990931797911L28.333333333333332,121.52097393679699L28.541666666666668,124.82680782787511L28.75,121.97565332440614L28.958333333333332,119.10569406905435L29.166666666666668,123.82339615293434L29.375,121.55878963616641L29.583333333333332,119.36878099084534L29.791666666666668,119.3660784814391L30,124.28779927862982L30.208333333333332,120.24235136563163L30.416666666666668,117.4502248527828L30.625,121.896055810207L30.833333333333336,113.11844038603036L31.041666666666664,118.31552267816292L31.25,115.39344603791385L31.458333333333332,111.95225562627834L31.666666666666668,105.09152291616029L31.875,105.72124092102253L32.08333333333333,104.12239810180684L32.29166666666667,107.33390271301403L32.5,107.09452815124587L32.708333333333336,100.46445939868119L32.916666666666664,102.54063785081776L33.125,108.6967674150808L33.333333333333336,111.7377035688606L33.541666666666664,111.86637091298384L33.75,108.4690411146848L33.958333333333336,110.02578910972886L34.166666666666664,111.1784328850878L34.375,106.77829256491498L34.583333333333336,106.93025201294802L34.791666666666664,103.9112527702688L35,107.91513394823306L35.208333333333336,101.7456494759955L35.416666666666664,111.91701763626563L35.625,110.91184981820957L35.833333333333336,102.48743819903122L36.041666666666664,103.07191547984354L36.25,106.06760387012048L36.458333333333336,100.1667851156514L36.666666666666664,112.67079157605893L36.875,103.09336792048886L37.083333333333336,109.91283345065757L37.291666666666664,111.06074229909328L37.5,108.8936456510624L37.708333333333336,118.46036035091882L37.91666666666667,105.94915427512649L38.125,109.65940336219502L38.33333333333333,119.330646462393L38.54166666666667,117.77963992211355L38.75,113.46146127565581L38.95833333333333,109.49332879176067L39.16666666666667,103.33162647122339L39.375,105.5411910621774L39.58333333333333,112.11137086060357L39.79166666666667,112.32382826129623L40,109.83325558257118L40.20833333333333,106.9058993944646L40.416666666666664,101.8809071751309L40.625,101.6544422542973L40.833333333333336,96.42999346231959L41.041666666666664,112.09440999302589L41.25,109.38430153628185L41.458333333333336,102.51881436598298L41.666666666666664,104.62514512593745L41.875,99.4517907041025L42.083333333333336,96.98824098740292L42.291666666666664,102.92502890488072L42.5,95.60211551797727L42.708333333333336,89.5977480552932L42.916666666666664,82.3935595692599L43.125,90.63693089231278L43.333333333333336,89.12706132164254L43.541666666666664,92.14386048072967L43.75,109.8183485264444L43.958333333333336,111.35762114589593L44.166666666666664,108.36346544876803L44.375,97.71914355453913L44.583333333333336,106.58702833090464L44.791666666666664,99.41458993860626L45,116.60045740478361L45.208333333333336,108.62462798901275L45.416666666666664,98.68392864887639L45.625,102.29060579314665L45.83333333333333,87.60011417779229L46.04166666666667,98.54443847127499L46.25,97.72362156359993L46.45833333333333,91.79514026909258L46.66666666666667,81.86215673225634L46.875,87.34895543156571L47.08333333333333,103.24980894886558L47.29166666666667,121.97062926580372L47.5,110.80340519314923L47.70833333333333,95.12542254093836L47.91666666666667,79.06093428017826L48.125,75.09159944750148L48.333333333333336,81.45877079520987L48.541666666666664,78.58876314851264L48.75,87.45194754059685L48.958333333333336,88.42065132770284L49.166666666666664,82.39980943675842L49.375,81.89082213971619L49.583333333333336,74.014322690568L49.791666666666664,83.07945077681639L50,98.20216043343602L50.208333333333336,88.83888744658503L50.416666666666664,89.14118230620788L50.625,98.01080329394202L50.833333333333336,82.84370399174605L51.041666666666664,94.28612697421023L51.25,87.12797165571756L51.458333333333336,84.47081100856724L51.666666666666664,79.80923044058956L51.875,79.04755005939768L52.083333333333336,71.12478003563862L52.291666666666664,78.08796747817027L52.5,82.5532232664432L52.708333333333336,95.49726702871357L52.916666666666664,84.41427931512854L53.125,76.88100524166502L53.333333333333336,65.21591448533104L53.54166666666667,58.82708094827869L53.75,76.02459245629633L53.95833333333333,74.43362525527192L54.16666666666667,67.22250626888581L54.375,62.684639137308054L54.58333333333333,64.27178079683797L54.79166666666667,75.91712055634986L55,66.26629888410288L55.20833333333333,71.19870747682403L55.41666666666667,72.99491790650458L55.625,62.2030459587465L55.83333333333333,71.11109666399302L56.041666666666664,61.97281079990948L56.25,69.85905543746522L56.458333333333336,56.471061680447875L56.666666666666664,51.85335523946989L56.875,57.45726253333038L57.083333333333336,70.14642557419744L57.291666666666664,56.6320111062372L57.5,53.59664489616418L57.708333333333336,80.85280860823075L57.916666666666664,78.74825639296577L58.125,84.21079398470526L58.333333333333336,80.14682691572551L58.541666666666664,71.76169417189624L58.75,72.85216207198539L58.958333333333336,61.91491528518344L59.166666666666664,68.44679406551924L59.375,82.94004914133792L59.583333333333336,87.56848381524709L59.791666666666664,67.48877174666778L60,69.43138163930927L60.208333333333336,72.3394848978922L60.416666666666664,77.78596109559568L60.625,63.82913506800193L60.833333333333336,76.05878661331093L61.041666666666664,60.06090139303538L61.25,62.66943231531343L61.45833333333333,52.82651522414899L61.66666666666667,53.84226683102261L61.875,81.26968122745878L62.08333333333333,64.53288686147526L62.29166666666667,54.64992816180704L62.5,52.586891681019765L62.708333333333336,48.16701559332864L62.916666666666664,53.77277872245227L63.125,54.87189169025845L63.333333333333336,66.19335739574689L63.541666666666664,58.85568335224306L63.75,67.53584670263001L63.95833333333334,83.23474162600917L64.16666666666666,95.61203437532473L64.375,88.72308744648392L64.58333333333334,69.09825999962862L64.79166666666666,56.19620221559748L65,51.093053787854586L65.20833333333333,47.45213781470491L65.41666666666667,55.9976181380417L65.625,51.40486400416292L65.83333333333333,46.792072577302434L66.04166666666667,44.1185989846139L66.25,48.502309781393336L66.45833333333333,50.39616772918755L66.66666666666667,45.850315414123884L66.875,48.623728127868844L67.08333333333333,44.95231429981703L67.29166666666667,43.311531096980076L67.5,41.36149754612748L67.70833333333333,40.47387206893626L67.91666666666667,38.88855834878362L68.125,38.79250671337172L68.33333333333333,41.45010635346247L68.54166666666667,36.68481381207749L68.75,37.76573521107463L68.95833333333333,38.34959411126391L69.16666666666667,41.55609023751032L69.375,52.53052035344368L69.58333333333333,52.03125319107011L69.79166666666667,48.203329612395976L70,47.39304494761336L70.20833333333333,82.76473637427632L70.41666666666667,72.81022213462438L70.625,59.021068491956285L70.83333333333333,51.24104719258587L71.04166666666667,47.623510365112054L71.25,60.55105414082017L71.45833333333333,73.8502001724804L71.66666666666667,60.705569841037075L71.875,49.08804081819645L72.08333333333333,48.25202929438464L72.29166666666667,47.21802214206048L72.5,47.76125319612498L72.70833333333333,43.80255398066325L72.91666666666667,43.606365060517106L73.125,41.64123355657395L73.33333333333333,40.707116507235355L73.54166666666667,38.24906241532756L73.75,41.16000046799536L73.95833333333333,44.15114823001596L74.16666666666667,43.076024173605276L74.375,41.84726748878231L74.58333333333333,39.897969715681484L74.79166666666667,66.43170797686984L75,56.865914953358214L75.20833333333333,67.19235964096025L75.41666666666667,58.5076861092832L75.625,72.43774461539901L75.83333333333334,57.5221561381359L76.04166666666666,55.89058143312569L76.25,51.07005949219962L76.45833333333334,46.50530791211668L76.66666666666666,49.8442677245649L76.875,43.58570690549092L77.08333333333334,42.78613743064807L77.29166666666666,41.49952361439469L77.5,47.077211544125106L77.70833333333334,48.589321036582476L77.91666666666666,44.315441193726826L78.125,41.65123544987867L78.33333333333334,45.3494912699272L78.54166666666666,55.428045408928966L78.75,50.85226685107028L78.95833333333334,46.98554040849376L79.16666666666666,45.92353127634624L79.375,43.67819020745813L79.58333333333334,50.8139012765745L79.79166666666666,48.88399542903062L80,61.726129725069754L80.20833333333334,53.93311603694613L80.41666666666666,46.456874260839584L80.625,46.632906172714684L80.83333333333333,42.25556587770106L81.04166666666667,41.84797722193315L81.25,41.68787190444894L81.45833333333333,58.07981242184417L81.66666666666667,72.65745884898053L81.875,57.56677728082387L82.08333333333333,55.21436058846501L82.29166666666667,48.63403621391885L82.5,42.04982227156421L82.70833333333333,46.489844412743196L82.91666666666667,41.833034607851005L83.125,62.92138630120961L83.33333333333333,52.02371614962226L83.54166666666667,45.500864516433495L83.75,48.09511285658863L83.95833333333333,54.35680352327934L84.16666666666667,55.418259756789865L84.375,50.621613965646176L84.58333333333333,45.28708199633107L84.79166666666667,46.347433371382635L85,44.599037384890124L85.20833333333333,42.92014716237938L85.41666666666667,43.0855526223788L85.625,40.87904187005813L85.83333333333333,42.805726788294635L86.04166666666667,37.4492371594026L86.25,43.84755523509466L86.45833333333333,52.210816862980636L86.66666666666667,48.09907355284696L86.875,44.560765573358566L87.08333333333333,42.64276488600734L87.29166666666667,58.11641782747843L87.5,74.1586491889187L87.70833333333333,71.66382199015786L87.91666666666667,56.815543194094715L88.125,48.20472645966973L88.33333333333333,52.32936328058699L88.54166666666667,45.381552843840495L88.75,60.46230659949278L88.95833333333333,51.513649981424166L89.16666666666667,49.42429939437207L89.375,49.56759901528537L89.58333333333333,45.40650411131966L89.79166666666667,46.411258942621856L90,44.21717385312192L90.20833333333333,68.77087412083313L90.41666666666667,56.573164487148304L90.625,56.928148692288985L90.83333333333333,45.931588128947595L91.04166666666667,43.46419100603066L91.25,41.237261429790266L91.45833333333334,37.70075740108706L91.66666666666666,38.83278711277137L91.875,41.54300460408862L92.08333333333334,48.62441030639846L92.29166666666666,46.4276498154309L92.5,47.03739903232494L92.70833333333334,44.48718941939498L92.91666666666666,43.784879355982696L93.125,44.57262817511307L93.33333333333334,47.45303601151318L93.54166666666666,43.96980216721062L93.75,41.29711665188884L93.95833333333334,46.49369961759817L94.16666666666666,42.8440995007835L94.375,63.57857798660291L94.58333333333334,55.25483554318244L94.79166666666666,50.66105205222783L95,58.736226995496864L95.20833333333334,53.02928304178053L95.41666666666666,48.80293789757812L95.625,41.31901273854686L95.83333333333334,41.02697624664373L96.04166666666666,43.96929658783L96.25,65.8412983811648L96.45833333333333,55.77197620277113L96.66666666666667,63.636880057600166L96.875,52.269248914687054L97.08333333333333,47.04221783636106L97.29166666666667,59.73727888296898L97.5,56.06368990058219L97.70833333333333,50.89888773795671L97.91666666666667,49.02908264277403L98.125,45.279388214814816L98.33333333333333,46.69874376873264L98.54166666666667,45.11466383326106L98.75,63.69038211648497L98.95833333333333,56.51646761217614L99.16666666666667,73.2525902230674L99.375,63.06065645927988L99.58333333333333,70.61064387556794L99.79166666666667,62.299208529930596L100,53.41928448685486L100.20833333333333,47.67636701779651L100.41666666666667,46.803881184798996L100.625,43.91577039178759L100.83333333333333,40.72971980343195L101.04166666666667,40.74464285618026L101.25,48.24844617513395L101.45833333333333,48.11440886108622L101.66666666666667,50.36956288867323L101.875,47.895655305225404L102.08333333333333,46.804314417266085L102.29166666666667,44.66409423507645L102.5,43.22517904470797L102.70833333333333,40.28217197150252L102.91666666666667,41.27801860648549L103.125,48.84708008478975L103.33333333333333,45.4860676919871L103.54166666666667,39.97858952876649L103.75,38.44823049948644L103.95833333333333,37.877215033090295L104.16666666666667,41.52877408821354L104.375,44.66744218730315L104.58333333333333,43.16969416370026L104.79166666666667,42.18881649822015L105,49.32785178858052L105.20833333333333,47.29647743057021L105.41666666666667,44.192951247160465L105.625,55.158289180913485L105.83333333333333,62.31601095361644L106.04166666666667,51.68254538442572L106.25,46.93356867352654L106.45833333333333,43.448808257338555L106.66666666666667,41.84256037554573L106.875,40.721907319077445L107.08333333333334,38.524135663419116L107.29166666666666,37.71773600620577L107.5,38.102167696252735L107.70833333333334,39.87824022346453L107.91666666666666,43.770432262740826L108.125,43.174660358621054L108.33333333333334,44.65092640316092L108.54166666666666,45.42305132529498L108.75,49.32263398731567L108.95833333333334,59.87120765069018L109.16666666666666,51.99786613094146L109.375,47.443023145361735L109.58333333333334,49.631368116953354L109.79166666666666,64.83606292034293L110,56.04425237622918L110.20833333333334,50.305235080522664L110.41666666666666,46.88230382907531L110.625,43.35905371468152L110.83333333333334,41.67201465678744L111.04166666666666,43.08076342053732L111.25,41.42815955989073L111.45833333333334,40.44319728012391L111.66666666666666,39.46586789200012L111.875,40.42152943270983L112.08333333333333,46.50534853731145L112.29166666666667,43.85880036994547L112.5,44.31894159892039L112.70833333333333,43.44490612756513L112.91666666666667,42.25825400979102L113.125,48.50506702989804L113.33333333333333,44.062607173505256L113.54166666666667,41.39713125966958L113.75,41.554751015323234L113.95833333333333,43.48782689703572L114.16666666666667,43.23907251151243L114.375,41.73128789777661L114.58333333333333,39.651441226214786L114.79166666666667,39.15290083802378L115,39.000596185187334L115.20833333333333,37.4668066246866L115.41666666666667,39.44859343526119L115.625,39.427452386840315L115.83333333333333,43.2736054653073L116.04166666666667,41.61909162391095L116.25,40.18352357786219L116.45833333333333,38.99083918333838L116.66666666666667,38.453320892815555L116.875,39.25320725736901L117.08333333333333,42.07172760759525L117.29166666666667,39.465892765728995L117.5,42.3422039028456L117.70833333333333,40.70463636758626L117.91666666666667,39.76497707201659L118.125,39.885567267379884L118.33333333333333,42.14840292146309L118.54166666666667,40.72851828486026L118.75,44.14415216964662L118.95833333333333,41.019728484405164L119.16666666666667,40.108293938787625L119.375,39.543664717764756L119.58333333333333,40.373919350678364L119.79166666666667,42.02774669097343L120,43.24240457586336L120.20833333333333,48.040312008213334L120.41666666666667,46.25706220492799L120.625,47.112454363972404L120.83333333333333,42.90338246945771L121.04166666666667,42.99891165330547L121.25,40.10313919779381L121.45833333333333,39.2916662945552L121.66666666666667,38.08101384533663L121.875,38.25014956696759L122.08333333333333,39.48481654682118L122.29166666666667,38.65849915050481L122.5,39.724538119453285L122.70833333333334,38.66330490292199L122.91666666666666,41.91659124863796L123.125,40.12024472721012L123.33333333333334,45.37713838295693L123.54166666666666,44.62286597655151L123.75,39.64312012914377L123.95833333333334,39.57942835190033L124.16666666666666,42.345864896882404L124.375,39.47390266615679L124.58333333333334,38.01069072078781L124.79166666666666,36.49539014048051L125,39.74444471661252L125.20833333333334,39.20463698377611L125.41666666666667,40.94524651521684L125.62499999999999,39.33905382343676L125.83333333333333,40.0646814090523L126.04166666666666,40.13491840353683L126.25,39.67478966516899L126.45833333333334,37.51694148708967L126.66666666666667,39.93444898038857L126.87499999999999,41.733245285449954L127.08333333333333,43.005847104131306L127.29166666666666,44.57802947219557L127.5,41.75876394186227L127.70833333333334,46.03371106287128L127.91666666666669,41.46926274001768L128.125,44.4393076440106L128.33333333333331,44.143352439189584L128.54166666666666,45.07308891712705L128.75,52.27932423650668L128.95833333333334,48.52105441128879L129.16666666666669,47.49073066923418L129.375,44.168553025563966L129.58333333333331,38.551731272125494L129.79166666666666,38.140412908783105L130,39.80864560293588L130.20833333333334,42.080619185492L130.41666666666666,42.32335341437138L130.625,40.419978631874756L130.83333333333334,39.65098348649789L131.04166666666666,41.06594150181087L131.25,41.396960103723245L131.45833333333334,46.398013220437065L131.66666666666666,41.3862549537466L131.875,39.1881634947089L132.08333333333334,37.201873804833156L132.29166666666666,38.01584297186474L132.5,36.98873112491572L132.70833333333334,42.35780636293771L132.91666666666666,43.085888041395435L133.125,40.560119128548195L133.33333333333334,44.3801192371387L133.54166666666666,45.05754663993946L133.75,42.24913339167853L133.95833333333334,40.73319304770243L134.16666666666666,48.205216335213265L134.375,44.79016105112794L134.58333333333334,42.02479032574516L134.79166666666666,39.59521596180451L135,38.578891570490896L135.20833333333334,36.96607334561486L135.41666666666666,39.043321528120856L135.625,38.162720364382295L135.83333333333334,38.10742204406884L136.04166666666669,38.91247486340421L136.25,42.344161187573775L136.45833333333331,38.63189725575714L136.66666666666666,38.03629881488007L136.875,39.18998418394756L137.08333333333334,43.56962500133534L137.29166666666669,41.867627936592214L137.5,43.85939258837135L137.70833333333331,43.0338053528275L137.91666666666666,43.957545083034375L138.125,41.255091838638975L138.33333333333334,41.85959767520487L138.54166666666669,41.433778777242054L138.75,41.34138982493897L138.95833333333331,36.058884981389184L139.16666666666666,42.14687591070853L139.375,41.09972735306573L139.58333333333334,40.87666417062849L139.79166666666669,39.98862133562906L140,39.42611448228564L140.20833333333331,35.701819232584256L140.41666666666666,40.71925911157206L140.625,39.56645253115221L140.83333333333334,38.88566543348625L141.04166666666669,37.32602728133199L141.25,38.12801501992223L141.45833333333331,39.166210012929895L141.66666666666666,40.86882781439857L141.875,40.145595974527794L142.08333333333334,40.33037906909169L142.29166666666669,38.848135888720634L142.5,39.932689821806605L142.70833333333331,38.92542236476365L142.91666666666666,37.48831109708084L143.125,37.19139586845358L143.33333333333334,38.03368029450965L143.54166666666669,41.48081221112963L143.75,40.17588597780079L143.95833333333331,38.95315051368243L144.16666666666666,38.543120166607906L144.375,40.362842803089734L144.58333333333334,38.50121975045735L144.79166666666669,37.066314278252946L145,35.985839653377525L145.20833333333331,47.77827896902849L145.41666666666666,44.31489914411242L145.625,41.650910220110006L145.83333333333334,39.23114638231016L146.04166666666666,48.554309594522806L146.25,44.53525418322735L146.45833333333334,38.642703596362196L146.66666666666666,37.993355678325116L146.875,37.32175425172164L147.08333333333334,38.950094543220445L147.29166666666666,38.89242211289516L147.5,37.46708772818633L147.70833333333334,38.63898377704848L147.91666666666666,38.6532486951842L148.125,44.389419920235525L148.33333333333334,55.39018805443625L148.54166666666666,47.13107932436097L148.75,40.97004813782948L148.95833333333334,40.84878333826407L149.16666666666666,38.47288328420845L149.375,39.72696898419696L149.58333333333334,38.20046849989316L149.79166666666666,37.943528902670266L150,37.10927618559634L150.20833333333334,33.9913157113578L150.41666666666666,35.99781106377756L150.625,32.90613555184078L150.83333333333334,33.4039563860361L151.04166666666666,36.71762438093808L151.25,43.6424868905257L151.45833333333334,40.615068001014635L151.66666666666669,41.883666624583384L151.875,40.33560335609769L152.08333333333331,40.41525370677385L152.29166666666666,58.82130923700376L152.5,47.37898445577645L152.70833333333334,43.76463182336826L152.91666666666669,39.77140888528072L153.125,38.72175765416645L153.33333333333331,38.81299782980457L153.54166666666666,39.55662007849796L153.75,39.410846192606584L153.95833333333334,40.865052637438964L154.16666666666669,88.00212345563232L154.375,117.09853885914599L154.58333333333331,126.37152430692743L154.79166666666666,128.87484165167467L155,143.0393035658339L155.20833333333334,147.16409842062828L155.41666666666669,137.35229249887965L155.625,128.29900060613932L155.83333333333331,117.5645207402705L156.04166666666666,109.03457900605194L156.25,81.18225954962726L156.45833333333334,64.51271156473729L156.66666666666669,64.32218708898887L156.875,52.6772499059812L157.08333333333331,44.471298857162935L157.29166666666666,60.59823404147063L157.5,53.2875834912886L157.70833333333334,45.91899241655054L157.91666666666669,60.1852996094762L158.125,50.21775309942596L158.33333333333331,53.660203403845046L158.54166666666666,47.16456781257068L158.75,42.39105468290376L158.95833333333334,41.626660184009836L159.16666666666669,39.90044435259341L159.375,38.21933448264977L159.58333333333331,38.155226147353545L159.79166666666666,37.99240885125391L160,42.5344192792582L160.20833333333334,41.49637156877563L160.41666666666669,39.60111291929272L160.625,39.52909771373385L160.83333333333331,38.239157969060614L161.04166666666666,37.07747048944418L161.25,49.767985864223135L161.45833333333334,44.72730338987179L161.66666666666666,38.806882033923074L161.875,38.864403817521804L162.08333333333334,44.152331468979895L162.29166666666666,42.51982954545045L162.5,39.047749869604246L162.70833333333334,38.73814375721176L162.91666666666666,38.662741936700115L163.125,38.00068803921732L163.33333333333334,38.11021629032729L163.54166666666666,37.0029845105245L163.75,36.19209746901001L163.95833333333334,37.71236749019508L164.16666666666666,34.73586940769124L164.375,33.02562110140187L164.58333333333334,31.425423747266905L164.79166666666666,33.41022809479571L165,52.71683282550535L165.20833333333334,47.023155969717266L165.41666666666666,42.83913473173271L165.625,39.8263750040787L165.83333333333334,43.476498586431575L166.04166666666666,41.37569337182964L166.25,62.76166602309779L166.45833333333334,54.64721857748172L166.66666666666666,53.16899978662576L166.875,47.922459137112185L167.08333333333334,43.28179115609544L167.29166666666669,38.01077360723147L167.5,37.91372527273731L167.70833333333331,41.348463801337715L167.91666666666666,41.69849051224796L168.125,39.83719232980971L168.33333333333334,40.00884377923347L168.54166666666669,42.17214608077251L168.75,40.50623299148111L168.95833333333331,38.93401652828709L169.16666666666666,55.60674797544395L169.375,49.35276515489528L169.58333333333334,49.365386723552405L169.79166666666669,47.98393442670957L170,42.59325625539097L170.20833333333331,42.78095204425023L170.41666666666666,61.84878234715558L170.625,51.280072234221095L170.83333333333334,45.877327916948644L171.04166666666669,51.44305538054029L171.25,56.44366403887106L171.45833333333331,50.42230880540272L171.66666666666666,46.8827261951069L171.875,43.800347112327785L172.08333333333334,41.8999282686174L172.29166666666669,41.093926718250515L172.5,38.93676835394834L172.70833333333331,43.263097114663964L172.91666666666666,44.739541740478074L173.125,40.52393329623996L173.33333333333334,36.858911064169774L173.54166666666669,39.45160850983973L173.75,37.76015834320853L173.95833333333331,37.22922302716535L174.16666666666666,37.519451388320704L174.375,34.48217083299241L174.58333333333334,36.26333558085014L174.79166666666669,36.33788965417415L175,36.95498379250449L175.20833333333331,34.17018918907692L175.41666666666666,35.753681842303536L175.625,35.909803892979795L175.83333333333334,39.099597759371875L176.04166666666669,37.57121004112116L176.25,36.726427440688326L176.45833333333331,36.07842845537979L176.66666666666666,36.89394833909702L176.875,37.11901435868282L177.08333333333334,39.30072261057103L177.29166666666666,38.18026864935044L177.5,39.48528304629971L177.70833333333334,38.176221310934125L177.91666666666666,37.611825743103424L178.125,38.62361836456324L178.33333333333334,38.23183950628675L178.54166666666666,37.105995396887295L178.75,37.58497657162849L178.95833333333334,37.04626340879739L179.16666666666666,36.44090431603041L179.375,39.56600648732328L179.58333333333334,39.02182300860491L179.79166666666666,37.258748407213744L180,49.67800459852748L180.20833333333334,53.42897210115751L180.41666666666666,44.02343434712026L180.625,42.1417414554401L180.83333333333334,39.14219114401604L181.04166666666666,38.06026790296235L181.25,38.573404851884845L181.45833333333334,37.74217773779108L181.66666666666666,38.68176599326057L181.875,39.03304665650322L182.08333333333334,38.77779814771054L182.29166666666666,37.45268352729818L182.5,36.964318185226574L182.70833333333334,37.343150115237535L182.91666666666669,36.81845794023624L183.125,36.38164245213002L183.33333333333331,36.332549649744834L183.54166666666666,37.57999734966134L183.75,35.582049496222595L183.95833333333334,35.04394444993082L184.16666666666669,36.244196046179184L184.375,33.62801762770749L184.58333333333331,33.92301104659521L184.79166666666666,34.91811830398251L185,34.936913523893395L185.20833333333334,32.68344920076183L185.41666666666669,35.85054605243951L185.625,33.47192708825082L185.83333333333331,34.721439944356746L186.04166666666666,34.72055781427028L186.25,36.5317711814821L186.45833333333334,36.44412725356696L186.66666666666669,42.27890936605624L186.875,37.16874616284662L187.08333333333331,39.82976890742475L187.29166666666666,37.060960801241976L187.5,36.64536359012018L187.70833333333334,36.833248183368994L187.91666666666669,36.75175045421082L188.125,42.7314013162277L188.33333333333331,41.01701303094754L188.54166666666666,38.77214269405681L188.75,37.23183670285988L188.95833333333334,33.74890310814169L189.16666666666669,38.72090509730691L189.375,34.96719360159702L189.58333333333331,36.90615020636838L189.79166666666666,46.24386236503196L190,42.31517035481019L190.20833333333334,39.26884885595251L190.41666666666669,41.27876811484103L190.625,40.07412827002767L190.83333333333331,38.20854123203614L191.04166666666666,36.82842780929002L191.25,40.358429122097476L191.45833333333334,38.31144284923508L191.66666666666669,38.72893898224612L191.875,35.18561338934768L192.08333333333331,33.70931694718283L192.29166666666666,35.682044819188576L192.5,36.85814446353464L192.70833333333334,39.03451784267156L192.91666666666666,39.27012827762445L193.125,37.340614899924276L193.33333333333334,37.57465904005221L193.54166666666666,37.170223982380946L193.75,36.25733330300281L193.95833333333334,36.649463122670824L194.16666666666666,36.50731941412985L194.375,36.63018422049939L194.58333333333334,36.256151731030116L194.79166666666666,36.228109129438366L195,37.113264128786085L195.20833333333334,39.88733475900992L195.41666666666666,35.59140085540594L195.625,35.761104398741594L195.83333333333334,35.81836405526059L196.04166666666666,36.38671984917198L196.25,36.2803866458313L196.45833333333334,36.70738228657103L196.66666666666666,33.71902882872976L196.875,32.15296838366365L197.08333333333334,32.80804491569623L197.29166666666666,31.62862803584352L197.5,33.06896933249243L197.70833333333334,33.36147241980797L197.91666666666666,33.74802877659181L198.125,36.23871512362112L198.33333333333334,37.29209781806915L198.54166666666669,34.0565086908415L198.75,35.9138375265166L198.95833333333331,35.6574425305584L199.16666666666666,36.956903720239325L199.375,35.5152416889307L199.58333333333334,35.559683343436575L199.79166666666669,36.08873062984122L200,37.4187214101313L200.20833333333331,36.390360806283866L200.41666666666666,35.40876711243243L200.625,36.15593806286961L200.83333333333334,33.72191229450891L201.04166666666669,40.34613700072876L201.25,47.0263853559548L201.45833333333331,44.035038000682306L201.66666666666666,40.9557592506047L201.875,42.617271224190944L202.08333333333334,40.10781796522744L202.29166666666669,38.37292918245677L202.5,52.87583993745258L202.70833333333331,46.28047780890711L202.91666666666666,41.65498645341063L203.125,36.505142415259286L203.33333333333334,49.5092215880716L203.54166666666669,44.34921074825314L203.75,41.27851524900072L203.95833333333331,40.30880748314067L204.16666666666666,38.048343632950804L204.375,48.596605697592764L204.58333333333334,45.16851151425877L204.79166666666669,43.52148196959044L205,43.27743602623667L205.20833333333331,40.30571747511701L205.41666666666666,38.24241022139833L205.625,35.783696132839L205.83333333333334,32.92896767970339L206.04166666666669,36.2133605577732L206.25,38.033480140816266L206.45833333333331,34.49688917091555L206.66666666666666,34.91127977330129L206.875,39.57401047872685L207.08333333333334,37.67817002014627L207.29166666666669,37.96958453772254L207.5,34.578699636207716L207.70833333333331,35.8293301332871L207.91666666666666,45.85455248671053L208.125,41.62839277742674L208.33333333333334,40.21360045527439L208.54166666666666,39.232401117891186L208.75,34.962591213947604L208.95833333333334,36.30936646542912L209.16666666666666,43.17554276133754L209.375,38.14727457037674L209.58333333333334,36.563214199013146L209.79166666666666,38.225645560423516L210,38.06050385236739L210.20833333333334,37.68582248353957L210.41666666666666,38.414849325084674L210.625,37.543513476886744L210.83333333333334,34.296358086132074L211.04166666666666,35.27184576598586L211.25,35.72376874499193L211.45833333333334,35.11661518986625L211.66666666666666,35.351978482816236L211.875,35.61924629379132L212.08333333333334,36.56767579751502L212.29166666666666,35.94183082030588L212.5,36.82118092016205L212.70833333333334,60.09821412155523L212.91666666666666,50.201074102815966L213.125,44.34321276002942L213.33333333333334,40.64987669166217L213.54166666666666,39.280792836286366L213.75,37.40266307970151L213.95833333333334,37.05066211784043L214.16666666666669,37.68451882221794L214.375,37.29607524596747L214.58333333333331,35.825545690793376L214.79166666666666,33.57707741447604L215,34.9402203866739L215.20833333333334,32.73883114557856L215.41666666666669,34.53665342367526L215.625,34.48584151099226L215.83333333333331,32.519604363382484L216.04166666666666,35.494777968371295L216.25,37.46476463868879L216.45833333333334,36.50704921290077L216.66666666666669,36.542738652496325L216.875,34.05634210507205L217.08333333333331,35.85869652891233L217.29166666666666,40.218714041615016L217.5,38.32923263639478L217.70833333333334,41.15837689262787L217.91666666666669,38.510798596514235L218.125,34.631979157908546L218.33333333333331,33.38603695153222L218.54166666666666,34.34071341847795L218.75,36.392272441955924L218.95833333333334,33.458764008386424L219.16666666666669,35.41000349170176L219.375,35.50825209502105L219.58333333333331,32.77705071379975L219.79166666666666,34.8614241233482L220,36.91460447400891L220.20833333333334,37.450219685137796L220.41666666666669,36.466943548143206L220.625,36.89538524509689L220.83333333333331,34.06768006063234L221.04166666666666,35.780671177248564L221.25,38.18711571904447L221.45833333333334,36.486820060088775L221.66666666666669,36.09675332145366L221.875,35.991720907667116L222.08333333333331,34.264183087813166L222.29166666666666,35.40821743325429L222.5,35.683784402823676L222.70833333333334,37.575433422455944L222.91666666666669,36.91911857398139L223.125,35.189971144388835L223.33333333333331,35.8138151146118L223.54166666666666,41.71353906876709L223.75,39.68529192880908L223.95833333333334,37.67370466778348L224.16666666666666,37.058069419322436L224.375,37.313030006085654L224.58333333333334,36.49879950999903L224.79166666666666,40.35936213397795L225,38.254745301627L225.20833333333334,59.04054371417932L225.41666666666666,51.131003749259534L225.625,42.791502792768625L225.83333333333334,41.782991794069375L226.04166666666666,39.78600537307247L226.25,38.07098991207593L226.45833333333334,38.89040644724554L226.66666666666666,37.74334332513442L226.875,36.49847248677986L227.08333333333334,34.26563457849372L227.29166666666666,37.168459818141145L227.5,36.72046651588468L227.70833333333334,53.140360170761284L227.91666666666666,47.62551801285716L228.125,43.6651049056147L228.33333333333334,50.9703774270114L228.54166666666666,72.03740005545002L228.75,57.609897888494615L228.95833333333334,46.42073981952254" style="fill: none;" fill="none"></path></g></g></g></g><g opacity="0.2"><g><g><g><path stroke="rgb(0, 153, 136)" stroke-width="2px" d="M20.833333333333332,130.73007195711136L21.041666666666668,130.52487880468368L21.25,133.91575957685708L21.458333333333332,129.017985663414L21.666666666666668,133.16206765860318L21.875,134.10139030158518L22.083333333333332,133.28453153014183L22.291666666666668,126.7568844985962L22.5,127.40044620990753L22.708333333333332,128.4399256658554L22.916666666666664,129.63068863868713L23.125,127.8603557062149L23.333333333333336,135.95449959516526L23.541666666666664,127.53728790283203L23.75,132.84562538146972L23.958333333333336,127.62229180812835L24.166666666666668,128.0007685995102L24.375,127.8009460401535L24.583333333333332,127.40753089427949L24.791666666666668,128.63967523097992L25,126.20364848136902L25.208333333333332,119.8666049861908L25.416666666666668,121.72974966049193L25.625,129.7141702747345L25.833333333333332,130.62740790367127L26.041666666666668,120.83464345932006L26.25,130.64898300409317L26.458333333333332,125.77621632575989L26.666666666666668,128.9968139410019L26.875,120.94255100250244L27.083333333333336,128.56352696895598L27.291666666666664,132.4504548728466L27.5,122.04529523849487L27.708333333333336,128.32158079624176L27.916666666666664,129.388587141037L28.125,113.82374607086182L28.333333333333332,120.3525708770752L28.541666666666668,129.78555863380433L28.75,117.69892158508301L28.958333333333332,114.80075519561768L29.166666666666668,130.89994926929472L29.375,118.16187986373902L29.583333333333332,116.08376802444458L29.791666666666668,119.36202471733094L30,131.6703804731369L30.208333333333332,114.17417949676513L30.416666666666668,113.26203508377075L30.625,128.56480224609373L30.833333333333336,99.95201725006103L31.041666666666664,126.11114611625672L31.25,111.01033107757569L31.458333333333332,106.79047000885011L31.666666666666668,94.80042385101319L31.875,106.66581792831421L32.08333333333333,101.72413387298583L32.29166666666667,112.15115962982178L32.5,106.73546630859376L32.708333333333336,90.51935626983644L32.916666666666664,105.65490552902222L33.125,117.9309617614746L33.333333333333336,116.29910779953002L33.541666666666664,112.05937192916869L33.75,103.37304641723634L33.958333333333336,112.36091110229492L34.166666666666664,112.90739854812622L34.375,100.17808208465577L34.583333333333336,107.15819118499755L34.791666666666664,99.38275390625L35,113.92095571517945L35.208333333333336,92.49142276763915L35.416666666666664,127.17406987667084L35.625,109.40409809112549L35.833333333333336,89.85082077026368L36.041666666666664,103.948631401062L36.25,110.56113645553589L36.458333333333336,91.31555698394774L36.666666666666664,131.42680126667022L36.875,88.7272324371338L37.083333333333336,120.14203174591064L37.291666666666664,112.78260557174683L37.5,105.64300067901611L37.708333333333336,132.81043240070343L37.91666666666667,87.182345161438L38.125,115.22477699279784L38.33333333333333,133.83751111268998L38.54166666666667,115.45313011169434L38.75,106.98419330596923L38.95833333333333,103.54113006591797L39.16666666666667,94.08907299041748L39.375,108.8555379486084L39.58333333333333,121.9666405582428L39.79166666666667,112.6425143623352L40,106.09739656448365L40.20833333333333,102.51486511230469L40.416666666666664,94.34341884613036L40.625,101.31474487304688L40.833333333333336,88.59332027435303L41.041666666666664,135.59103478908537L41.25,105.31913885116577L41.458333333333336,92.22058361053466L41.666666666666664,107.78464126586914L41.875,91.6917590713501L42.083333333333336,93.2929164123535L42.291666666666664,111.83021078109742L42.5,84.61774543762208L42.708333333333336,80.5911968612671L42.916666666666664,71.58727684020997L43.125,103.00198787689209L43.333333333333336,86.8622569656372L43.541666666666664,96.66905921936035L43.75,136.33008059501648L43.958333333333336,113.66653007507324L44.166666666666664,103.87223190307617L44.375,81.7526607131958L44.583333333333336,119.88885549545287L44.791666666666664,88.6559323501587L45,142.37925860404968L45.208333333333336,96.66088386535645L45.416666666666664,83.77287963867188L45.625,107.700621509552L45.83333333333333,65.56437675476074L46.04166666666667,114.96092491149902L46.25,96.4923962020874L46.45833333333333,82.90241832733155L46.66666666666667,66.96268142700195L46.875,95.57915348052978L47.08333333333333,127.10108922481537L47.29166666666667,150.05185974121093L47.5,94.05256908416747L47.70833333333333,71.60844856262207L47.91666666666667,54.96420188903808L48.125,69.13759719848633L48.333333333333336,91.00952781677246L48.541666666666664,74.2837516784668L48.75,100.74672412872314L48.958333333333336,89.87370700836182L49.166666666666664,73.3685466003418L49.375,81.12734119415283L49.583333333333336,62.1995735168457L49.791666666666664,96.67714290618896L50,120.88622491836549L50.208333333333336,74.79397796630859L50.416666666666664,89.59462459564209L50.625,111.3152347755432L50.833333333333336,60.09305503845215L51.041666666666664,111.4497614479065L51.25,76.39073867797852L51.458333333333336,80.4850700378418L51.666666666666664,72.81685958862305L51.875,77.90502948760987L52.083333333333336,59.240624999999994L52.291666666666664,88.53274864196777L52.5,89.25110694885254L52.708333333333336,114.91333267211914L52.916666666666664,67.78979774475097L53.125,65.58109413146973L53.333333333333336,47.718278350830076L53.54166666666667,49.243830642700175L53.75,101.82085971832275L53.95833333333333,72.04717445373535L54.16666666666667,56.40582778930664L54.375,55.8778384399414L54.58333333333333,66.65249328613281L54.79166666666667,93.38513019561768L55,51.79006637573242L55.20833333333333,78.59732036590576L55.41666666666667,75.6892335510254L55.625,46.015238037109356L55.83333333333333,84.4731727218628L56.041666666666664,48.2653820037842L56.25,81.68842239379883L56.458333333333336,36.38907104492188L56.666666666666664,44.926795578002924L56.875,65.8631234741211L57.083333333333336,89.18017013549805L57.291666666666664,36.36038940429688L57.5,49.04359558105469L57.708333333333336,121.73705417633056L57.916666666666664,75.59142807006836L58.125,92.40460037231446L58.333333333333336,74.05087631225587L58.541666666666664,59.18399505615234L58.75,74.48786392211915L58.958333333333336,45.50904510498049L59.166666666666664,78.24461223602295L59.375,104.67993175506591L59.583333333333336,94.51113582611083L59.791666666666664,37.36920364379881L60,72.34529647827148L60.208333333333336,76.7016397857666L60.416666666666664,85.95567539215088L60.625,42.893896026611344L60.833333333333336,94.40326393127442L61.041666666666664,36.06407356262207L61.25,66.58222869873048L61.45833333333333,38.06213958740233L61.66666666666667,55.36589424133301L61.875,122.41080282211303L62.08333333333333,39.42769531250002L62.29166666666667,39.82549011230469L62.5,49.492336959838866L62.708333333333336,41.537201461791994L62.916666666666664,62.18142341613769L63.125,56.520561141967775L63.333333333333336,83.1755559539795L63.541666666666664,47.84917228698731L63.75,80.55609172821045L63.95833333333334,106.78308401107789L64.16666666666666,114.1779734992981L64.375,78.38966705322265L64.58333333333334,39.66101882934572L64.79166666666666,36.84311553955078L65,43.438331146240216L65.20833333333333,41.990763854980486L65.41666666666667,68.81583862304687L65.625,44.51573280334475L65.83333333333333,39.87288543701172L66.04166666666667,40.10838859558106L66.25,55.077875976562495L66.45833333333333,53.2369546508789L66.66666666666667,39.031536941528316L66.875,52.78384719848633L67.08333333333333,39.44519355773926L67.29166666666667,40.850356292724626L67.5,38.43644721984862L67.70833333333333,39.14243385314941L67.91666666666667,36.51058776855467L68.125,38.64842926025389L68.33333333333333,45.436505813598615L68.54166666666667,29.53687499999998L68.75,39.38711730957033L68.95833333333333,39.225382461547866L69.16666666666667,46.3658344268799L69.375,68.99216552734374L69.58333333333333,51.282352447509766L69.79166666666667,42.46144424438475L70,46.17761795043947L70.20833333333333,135.8222735142708L70.41666666666667,57.87845077514649L70.625,38.337338027954104L70.83333333333333,39.57101524353027L71.04166666666667,42.19720512390137L71.25,79.94236980438232L71.45833333333333,93.79891921997071L71.66666666666667,40.98862434387209L71.875,31.66174728393554L72.08333333333333,46.99801200866699L72.29166666666667,45.667011413574215L72.5,48.576099777221685L72.70833333333333,37.86450515747069L72.91666666666667,43.31208168029784L73.125,38.69353630065916L73.33333333333333,39.30594093322753L73.54166666666667,34.561981277465804L73.75,45.52640754699706L73.95833333333333,48.637869873046895L74.16666666666667,41.463338088989275L74.375,40.00413246154787L74.58333333333333,36.97402305603029L74.79166666666667,106.23231536865235L75,42.51722541809082L75.20833333333333,82.68202667236328L75.41666666666667,45.48067581176758L75.625,93.33283237457275L75.83333333333334,35.14877342224119L76.04166666666666,53.443219375610354L76.25,43.83927658081055L76.45833333333334,39.65818054199218L76.66666666666666,54.85270744323731L76.875,34.1978656768799L77.08333333333334,41.58678321838377L77.29166666666666,39.569602890014664L77.5,55.4437434387207L77.70833333333334,50.85748527526856L77.91666666666666,37.90462142944335L78.125,37.65492683410645L78.33333333333334,50.896874999999994L78.54166666666666,70.54587661743165L78.75,43.988599014282244L78.95833333333334,41.18545074462892L79.16666666666666,44.33051757812498L79.375,40.31017860412598L79.58333333333334,61.51746788024903L79.79166666666666,45.98913665771482L80,80.98933116912842L80.20833333333334,42.24359550476075L80.41666666666666,35.24251159667969L80.625,46.89695404052736L80.83333333333333,35.689555435180665L81.04166666666667,41.23659423828127L81.25,41.44771392822264L81.45833333333333,82.66772319793701L81.66666666666667,94.52392848968506L81.875,34.93075492858887L82.08333333333333,51.68573554992676L82.29166666666667,38.76354965209961L82.5,32.17350135803221L82.70833333333333,53.14987762451172L82.91666666666667,34.84781990051269L83.125,94.55391384124755L83.33333333333333,35.677210922241215L83.54166666666667,35.71658706665039L83.75,51.986485366821285L83.95833333333333,63.74933952331543L84.16666666666667,57.01044410705566L84.375,43.426645278930664L84.58333333333333,37.2852840423584L84.79166666666667,47.937960433959944L85,41.97644340515137L85.20833333333333,40.40181182861326L85.41666666666667,43.33366081237793L85.625,37.569275741577144L85.83333333333333,45.69575416564942L86.04166666666667,29.414502716064447L86.25,53.44503234863281L86.45833333333333,64.75570930480957L86.66666666666667,41.93145858764649L86.875,39.25330360412596L87.08333333333333,39.76576385498046L87.29166666666667,81.32689723968505L87.5,98.2219962310791L87.70833333333333,67.9215811920166L87.91666666666667,34.543125L88.125,35.28850135803222L88.33333333333333,58.51631851196289L88.54166666666667,34.959837188720684L88.75,83.08343723297119L88.95833333333333,38.090665054321306L89.16666666666667,46.29027351379395L89.375,49.782548446655255L89.58333333333333,39.16486175537108L89.79166666666667,47.918391189575175L90,40.926046218872074L90.20833333333333,105.60142452239991L90.41666666666667,38.27660003662109L90.625,57.46062499999999L90.83333333333333,29.436747283935546L91.04166666666667,39.76309532165527L91.25,37.89686706542969L91.45833333333334,32.39600135803221L91.66666666666666,40.53083168029784L91.875,45.60833084106446L92.08333333333334,59.246518859863286L92.29166666666666,43.132509078979496L92.5,47.95202285766601L92.70833333333334,40.66187499999998L92.91666666666666,42.731414260864256L93.125,45.75425140380861L93.33333333333334,51.773647766113285L93.54166666666666,38.74495140075683L93.75,37.28808837890625L93.95833333333334,54.28857406616211L94.16666666666666,37.36969932556153L94.375,94.68029571533202L94.58333333333334,42.76922187805175L94.79166666666666,43.77037681579591L95,70.84898941040039L95.20833333333334,44.46886711120604L95.41666666666666,42.463420181274415L95.625,30.093125000000015L95.83333333333334,40.58892150878904L96.04166666666666,48.38277709960937L96.25,98.649301071167L96.45833333333333,40.66799293518065L96.66666666666667,75.43423583984375L96.875,35.21780220031738L97.08333333333333,39.201671218872065L97.29166666666667,78.77987045288086L97.5,50.55330642700196L97.70833333333333,43.15168449401855L97.91666666666667,46.22437499999998L98.125,39.65484657287598L98.33333333333333,48.82777709960939L98.54166666666667,42.73854393005371L98.75,91.5539595413208L98.95833333333333,45.7555958557129L99.16666666666667,98.3567741394043L99.375,47.77275581359865L99.58333333333333,81.935625L99.79166666666667,49.83205551147461L100,40.099398422241194L100.20833333333333,39.06199081420897L100.41666666666667,45.495152435302714L100.625,39.58360420227049L100.83333333333333,35.95064392089844L101.04166666666667,40.76702743530274L101.25,59.50415115356445L101.45833333333333,47.913352890014664L101.66666666666667,53.75229393005371L101.875,44.18479393005373L102.08333333333333,45.16730308532715L102.29166666666667,41.45376396179199L102.5,41.06680625915527L102.70833333333333,35.86766136169433L102.91666666666667,42.77178855895994L103.125,60.20067230224609L103.33333333333333,40.444549102783185L103.54166666666667,31.717372283935532L103.75,36.15269195556641L103.95833333333333,37.02069183349607L104.16666666666667,47.00611267089843L104.375,49.375444335937516L104.58333333333333,40.9230721282959L104.79166666666667,40.7175L105,60.0364047241211L105.20833333333333,44.24941589355467L105.41666666666667,39.537661972045896L105.625,71.60629608154296L105.83333333333333,73.0525936126709L106.04166666666667,35.73234703063963L106.25,39.81010360717775L106.45833333333333,38.221667633056626L106.66666666666667,39.43318855285645L106.875,39.040927734375L107.08333333333334,35.22747817993164L107.29166666666666,36.50813652038576L107.5,38.67881523132323L107.70833333333334,42.54234901428222L107.91666666666666,49.608720321655255L108.125,42.281002502441424L108.33333333333334,46.865325469970685L108.54166666666666,46.58123870849607L108.75,55.17200798034668L108.95833333333334,75.69406814575196L109.16666666666666,40.18785385131838L109.375,40.61075866699218L109.58333333333334,52.913885574340824L109.79166666666666,87.64310512542724L110,42.8565365600586L110.20833333333334,41.69670913696291L110.41666666666666,41.7479069519043L110.625,38.074178543090824L110.83333333333334,39.14145606994629L111.04166666666666,45.19388656616209L111.25,38.9492537689209L111.45833333333334,38.965753860473626L111.66666666666666,37.99987380981446L111.875,41.855021743774415L112.08333333333333,55.63107719421387L112.29166666666667,39.88897811889649L112.5,45.0091534423828L112.70833333333333,42.133852920532206L112.91666666666667,40.478275833129885L113.125,57.8752865600586L113.33333333333333,37.39891738891603L113.54166666666667,37.39891738891603L113.75,41.79118064880373L113.95833333333333,46.38744071960451L114.16666666666667,42.865940933227535L114.375,39.469610977172835L114.58333333333333,36.53167121887208L114.79166666666667,38.40509025573732L115,38.77213920593263L115.20833333333333,35.16612228393555L115.41666666666667,42.421273651123045L115.625,39.39574081420898L115.83333333333333,49.042835083007816L116.04166666666667,39.13732086181639L116.25,38.03017150878907L116.45833333333333,37.20181259155274L116.66666666666667,37.64704345703123L116.875,40.4530368041992L117.08333333333333,46.29950813293459L117.29166666666667,35.557140502929684L117.5,46.65667060852053L117.70833333333333,38.248285064697285L117.91666666666667,38.3554881286621L118.125,40.06645256042481L118.33333333333333,45.54265640258791L118.54166666666667,38.59869132995604L118.75,49.267602996826156L118.95833333333333,36.33309295654297L119.16666666666667,38.74114212036133L119.375,38.69672088623045L119.58333333333333,41.619301300048846L119.79166666666667,44.508487701416016L120,45.06439140319824L120.20833333333333,55.23717315673828L120.41666666666667,43.5821875L120.625,48.39554260253908L120.83333333333333,36.58977462768553L121.04166666666667,43.142205429077165L121.25,35.75948051452639L121.45833333333333,38.074456939697285L121.66666666666667,36.26503517150877L121.875,38.503853149414056L122.08333333333333,41.33681701660154L122.29166666666667,37.419023056030255L122.5,41.32359657287597L122.70833333333334,37.071455078124984L122.91666666666666,46.796520767211916L123.125,37.42572494506834L123.33333333333334,53.262478866577155L123.54166666666666,43.491457366943365L123.75,32.17350135803221L123.95833333333334,39.48389068603515L124.16666666666666,46.49551971435545L124.375,35.16595932006834L124.58333333333334,35.81587280273439L124.79166666666666,34.22243927001955L125,44.61802658081055L125.20833333333334,38.394925384521486L125.41666666666667,43.556160812377925L125.62499999999999,36.92976478576662L125.83333333333333,41.15312278747558L126.04166666666666,40.24027389526367L126.25,38.98459655761718L126.45833333333334,34.2801692199707L126.66666666666667,43.560710220336915L126.87499999999999,44.43143974304198L127.08333333333333,44.91474983215332L127.29166666666666,46.93630302429199L127.5,37.52986564636231L127.70833333333334,52.44613174438477L127.91666666666669,34.62259025573732L128.125,48.894375L128.33333333333331,43.69941963195802L128.54166666666666,46.467693634033196L128.75,63.08867721557617L128.95833333333334,42.88364967346192L129.16666666666669,45.945245056152345L129.375,39.185286560058614L129.58333333333331,30.12649864196777L129.79166666666666,37.52343536376955L130,42.31099464416502L130.20833333333334,45.488579559326155L130.41666666666666,42.68745475769043L130.625,37.564916458129886L130.83333333333334,38.49749076843261L131.04166666666666,43.18837852478029L131.25,41.89348800659178L131.45833333333334,53.89959289550781L131.66666666666666,33.86861755371092L131.875,35.89102630615233L132.08333333333334,34.22243927001955L132.29166666666666,39.236796722412095L132.5,35.448063354492206L132.70833333333334,50.411419219970696L132.91666666666666,44.178010559082026L133.125,36.77146575927736L133.33333333333334,50.110119400024416L133.54166666666666,46.07368774414064L133.75,38.036513519287126L133.95833333333334,38.459282531738296L134.16666666666666,59.41325126647949L134.375,39.667578125000006L134.58333333333334,37.87673423767092L134.79166666666666,35.95085441589356L135,37.05440498352053L135.20833333333334,34.546846008300776L135.41666666666666,42.159193801879866L135.625,36.8418186187744L135.83333333333334,38.02447456359863L136.04166666666669,40.12005409240723L136.25,47.491690673828145L136.45833333333331,33.06350135803223L136.66666666666666,37.14290115356445L136.875,40.92051223754885L137.08333333333334,50.139086227416996L137.29166666666669,39.314632339477555L137.5,46.847039566040024L137.70833333333331,41.79542449951174L137.91666666666666,45.343154678344746L138.125,37.20141197204592L138.33333333333334,42.76635643005369L138.54166666666669,40.795050430297835L138.75,41.20280639648439L138.95833333333331,28.13512771606446L139.16666666666666,51.27886230468749L139.375,39.52900451660156L139.58333333333334,40.542069396972636L139.79166666666669,38.65655708312988L140,38.58235420227052L140.20833333333331,30.115376358032222L140.41666666666666,48.24541893005372L140.625,37.83724266052246L140.83333333333334,37.864484786987305L141.04166666666669,34.98657005310059L141.25,39.33099662780762L141.45833333333331,40.72350250244139L141.66666666666666,43.42275451660154L141.875,39.060748214721684L142.08333333333334,40.60755371093748L142.29166666666669,36.62477111816406L142.5,41.55952072143555L142.70833333333331,37.4145211791992L142.91666666666666,35.33264419555664L143.125,36.7460230255127L143.33333333333334,39.29710693359377L143.54166666666669,46.651510086059574L143.75,38.21849662780761L143.95833333333331,37.11904731750488L144.16666666666666,37.92807464599608L144.375,43.09242675781252L144.58333333333334,35.708785171508794L144.79166666666669,34.913956069946295L145,34.36512771606445L145.20833333333331,65.46693794250488L145.41666666666666,39.11982940673826L145.625,37.65492683410645L145.83333333333334,35.601500625610356L146.04166666666666,62.53905441284179L146.25,38.506671066284184L146.45833333333334,29.80387771606445L146.66666666666666,37.01933380126951L146.875,36.31435211181639L147.08333333333334,41.39260498046875L147.29166666666666,38.80591346740721L147.5,35.32908615112305L147.70833333333334,40.39682785034179L147.91666666666666,38.6746460723877L148.125,52.993676757812494L148.33333333333334,71.8913402557373L148.54166666666666,34.74241622924805L148.75,31.728501358032247L148.95833333333334,40.666886138916L149.16666666666666,34.909033203125006L149.375,41.608097534179706L149.58333333333334,35.91071777343748L149.79166666666666,37.558119506835936L150,35.857897109985345L150.20833333333334,29.314374999999984L150.41666666666666,39.00755409240725L150.625,28.268622283935542L150.83333333333334,34.1506876373291L151.04166666666666,41.688126373291L151.25,54.02978065490723L151.45833333333334,36.07393966674803L151.66666666666669,43.78656455993652L151.875,38.013508453369155L152.08333333333331,40.53472923278807L152.29166666666666,86.43039253234863L152.5,30.215497283935548L152.70833333333334,38.34310287475586L152.91666666666669,33.781574478149395L153.125,37.14728080749512L153.33333333333331,38.949858093261724L153.54166666666666,40.67205345153809L153.75,39.19218536376951L153.95833333333334,43.046362304687506L154.16666666666669,158.70772968292238L154.375,160.74316196441652L154.58333333333331,140.28100247859953L154.79166666666666,132.6298176687956L155,164.28599643707275L155.20833333333334,153.35129070281982L155.41666666666669,122.63458361625672L155.625,114.71906276702882L155.83333333333331,101.4628009414673L156.04166666666666,96.23966640472412L156.25,39.40378036499024L156.45833333333334,39.50838958740235L156.66666666666669,64.03640037536621L156.875,35.20984413146971L157.08333333333331,32.162372283935554L157.29166666666666,84.78863681793213L157.5,42.32160766601561L157.70833333333334,34.86610580444338L157.91666666666669,81.58476039886474L158.125,35.26643333435058L158.33333333333331,58.82387886047363L158.54166666666666,37.4211144256592L158.75,35.230784988403315L158.95833333333334,40.480068435668926L159.16666666666669,37.311120605468744L159.375,35.69766967773438L159.58333333333331,38.05906364440918L159.79166666666666,37.74818290710451L160,49.347434921264664L160.20833333333334,39.939300003051756L160.41666666666669,36.75822494506838L160.625,39.42107490539553L160.83333333333331,36.30424835205076L161.04166666666666,35.33493927001953L161.25,68.8037589263916L161.45833333333334,37.16627967834472L161.66666666666666,29.926249999999982L161.875,38.95068649291994L162.08333333333334,52.08422294616699L162.29166666666666,40.07107666015625L162.5,33.83963035583494L162.70833333333334,38.27373458862303L162.91666666666666,38.549639205932635L163.125,37.00760719299316L163.33333333333334,38.274508666992205L163.54166666666666,35.34213684082033L163.75,34.9757669067383L163.95833333333334,39.992772521972654L164.16666666666666,30.27112228393554L164.375,30.46024864196778L164.58333333333334,29.025127716064446L164.79166666666666,36.38743461608888L165,81.67673992156982L165.20833333333334,38.482640686035154L165.41666666666666,36.563102874755856L165.625,35.30723541259766L165.83333333333334,48.95168395996092L166.04166666666666,38.224485549926754L166.25,94.840625L166.45833333333334,42.47554740905761L166.66666666666666,50.9516716003418L166.875,40.05264816284179L167.08333333333334,36.320789184570316L167.29166666666669,30.104247283935564L167.5,37.768152770996096L167.70833333333331,46.50057159423827L167.91666666666666,42.223530578613264L168.125,37.04524505615234L168.33333333333334,40.26632095336916L168.54166666666669,45.41709953308106L168.75,38.007363357543966L168.95833333333331,36.57569183349611L169.16666666666666,80.6158451461792L169.375,39.97179092407228L169.58333333333334,49.384319076538105L169.79166666666669,45.91175598144531L170,34.5072389984131L170.20833333333331,43.062495727539044L170.41666666666666,90.45052780151367L170.625,35.42700706481932L170.83333333333334,37.77321144104002L171.04166666666669,59.79164657592773L171.25,63.944577026367185L171.45833333333331,41.390275955200195L171.66666666666666,41.573352279663084L171.875,39.17677848815919L172.08333333333334,39.04930000305174L172.29166666666669,39.88492439270021L172.5,35.7010308074951L172.70833333333331,49.75259025573729L172.91666666666666,46.95420867919921L173.125,34.20052062988282L173.33333333333334,31.361377716064453L173.54166666666669,43.34065467834472L173.75,35.22298309326172L173.95833333333331,36.432820053100585L174.16666666666666,37.95479393005371L174.375,29.926249999999982L174.58333333333334,38.93508270263672L174.79166666666669,36.44972076416016L175,37.88062499999998L175.20833333333331,29.99299728393555L175.41666666666666,38.128920822143556L175.625,36.14398696899414L175.83333333333334,43.88428855895998L176.04166666666669,35.27862846374512L176.25,35.45925354003904L176.45833333333331,35.10642997741701L176.66666666666666,38.117228164672866L176.875,37.45661338806153L177.08333333333334,42.573284988403316L177.29166666666666,36.49958770751954L177.5,41.442804641723626L177.70833333333334,36.21262870788573L177.91666666666666,36.765232391357415L178.125,40.14130729675293L178.33333333333334,37.64417121887209L178.54166666666666,35.41722923278809L178.75,38.30344833374025L178.95833333333334,36.23819366455078L179.16666666666666,35.53286567687988L179.375,44.25365974426268L179.58333333333334,38.20554779052736L179.79166666666666,34.614136505126936L180,68.30688888549804L180.20833333333334,59.05542335510253L180.41666666666666,29.915127716064433L180.625,39.31920211791993L180.83333333333334,34.642865676879865L181.04166666666666,36.43738304138182L181.25,39.34311027526857L181.45833333333334,36.49533706665039L181.66666666666666,40.091148376464844L181.875,39.5599676513672L182.08333333333334,38.394925384521486L182.29166666666666,35.46501159667969L182.5,36.231770172119155L182.70833333333334,37.91139801025389L182.91666666666669,36.03141967773439L183.125,35.72641921997072L183.33333333333331,36.25891044616699L183.54166666666666,39.45116889953613L183.75,32.58512771606445L183.95833333333334,34.236786880493185L184.16666666666669,38.04457344055177L184.375,29.703749999999985L184.58333333333331,34.36550117492678L184.79166666666666,36.410779190063494L185,34.96510635375975L185.20833333333334,29.303252716064435L185.41666666666669,40.60119132995604L185.625,29.903998641967775L185.83333333333331,36.59570922851563L186.04166666666666,34.71923461914062L186.25,39.24859123229979L186.45833333333334,36.31266136169435L186.66666666666669,51.031082534790045L186.875,29.503501358032224L187.08333333333331,43.82130302429201L187.29166666666666,32.90774864196777L187.5,36.021967773437495L187.70833333333334,37.11507507324217L187.91666666666669,36.62950386047365L188.125,51.70087760925293L188.33333333333331,38.44543060302735L188.54166666666666,35.404837188720705L188.75,34.921377716064455L188.95833333333334,28.524502716064433L189.16666666666669,46.178908081054686L189.375,29.33662635803222L189.58333333333331,39.814585113525396L189.79166666666666,60.25043060302734L190,36.42213233947754L190.20833333333334,34.699366607666036L190.41666666666669,44.293647003173845L190.625,38.267168502807635L190.83333333333331,35.41016067504884L191.04166666666666,34.75825767517088L191.25,45.65343109130859L191.45833333333334,35.240963439941424L191.66666666666669,39.3551831817627L191.875,29.870625000000018L192.08333333333331,31.494872283935564L192.29166666666666,38.641136627197284L192.5,38.62229393005373L192.70833333333334,42.29907791137697L192.91666666666666,39.62354393005373L193.125,34.44634483337404L193.33333333333334,37.92572525024414L193.54166666666666,36.56357139587402L193.75,34.88799728393556L193.95833333333334,37.237657852172845L194.16666666666666,36.29410385131834L194.375,36.81448143005372L194.58333333333334,35.695102996826165L194.79166666666666,36.18604522705078L195,38.440996627807635L195.20833333333334,44.04844070434572L195.41666666666666,29.14749999999998L195.625,36.01565971374512L195.83333333333334,35.904253540039065L196.04166666666666,37.239253540039044L196.25,36.12088684082033L196.45833333333334,37.34787574768066L196.66666666666666,29.236498641967756L196.875,29.80387771606445L197.08333333333334,33.7906597137451L197.29166666666666,29.85950271606447L197.5,35.22948127746582L197.70833333333334,33.800227050781245L197.91666666666666,34.32786331176757L198.125,39.97474464416504L198.33333333333334,38.87217185974123L198.54166666666669,29.203125L198.75,38.699830780029316L198.95833333333331,35.272850036621094L199.16666666666666,38.90609550476074L199.375,33.35274864196779L199.58333333333334,35.62634582519533L199.79166666666669,36.88230155944822L200,39.41370758056641L200.20833333333331,34.84781990051269L200.41666666666666,33.93637657165527L200.625,37.27669448852541L200.83333333333334,30.07087364196778L201.04166666666669,50.28247406005859L201.25,57.04675788879395L201.45833333333331,39.548016967773435L201.66666666666666,36.33684112548826L201.875,45.10953918457031L202.08333333333334,36.34363807678224L202.29166666666669,35.7705960083008L202.5,74.63020606994628L202.70833333333331,36.38743461608888L202.91666666666666,34.716749420165996L203.125,28.780376358032242L203.33333333333334,69.01534034729004L203.54166666666669,36.60919448852539L203.75,36.67247200012207L203.95833333333331,38.85424583435059L204.16666666666666,34.657647857666035L204.375,64.41899879455566L204.58333333333334,40.02637023925783L204.79166666666669,41.05093765258789L205,42.91136711120606L205.20833333333331,35.848139648437495L205.41666666666666,35.147449340820316L205.625,32.095624999999984L205.83333333333334,28.646874999999994L206.04166666666669,41.139949874877914L206.25,40.76365951538088L206.45833333333331,29.19200271606445L206.66666666666666,35.53286567687988L206.875,46.56810653686523L207.08333333333334,34.834409332275385L207.29166666666669,38.40670631408693L207.5,29.492372283935566L207.70833333333331,37.705275878906235L207.91666666666666,60.892386016845705L208.125,35.28915321350098L208.33333333333334,38.091411972045904L208.54166666666666,37.76060211181641L208.75,28.557876358032246L208.95833333333334,38.32952934265137L209.16666666666666,53.47480720520019L209.375,30.60487228393555L209.58333333333334,34.18712364196776L209.79166666666666,40.71929260253904L210,37.8127912902832L210.20833333333334,37.12380043029785L210.41666666666666,39.50838958740235L210.625,36.23650970458985L210.83333333333334,29.425624999999997L211.04166666666666,36.73507728576661L211.25,36.40165321350099L211.45833333333334,34.20588485717775L211.66666666666666,35.705023422241226L211.875,36.020148010253905L212.08333333333334,37.99032005310059L212.29166666666666,35.003063354492184L212.5,38.14020606994629L212.70833333333334,95.01376392364503L212.91666666666666,35.35536407470701L213.125,35.55642074584961L213.33333333333334,35.10987258911135L213.54166666666666,37.22716705322267L213.75,34.585468444824215L213.95833333333334,36.522660675048826L214.16666666666669,38.635303878784185L214.375,36.713409881591815L214.58333333333331,33.61975135803223L214.79166666666666,30.204375L215,36.984934844970724L215.20833333333334,29.436747283935546L215.41666666666669,37.233386840820316L215.625,34.409623641967755L215.83333333333331,29.570248641967794L216.04166666666666,39.95753837585451L216.25,40.419744644165036L216.45833333333334,35.07047607421873L216.66666666666669,36.596272811889634L216.875,30.326747283935532L217.08333333333331,38.56222816467283L217.29166666666666,46.75874031066894L217.5,35.49501052856445L217.70833333333334,45.402093276977524L217.91666666666669,34.53943115234375L218.125,28.81375L218.33333333333331,31.51712364196777L218.54166666666666,35.77272811889648L218.75,39.469610977172835L218.95833333333334,29.05850135803223L219.16666666666669,38.3368627166748L219.375,35.655625000000015L219.58333333333331,28.68024864196778L219.79166666666666,37.9879842376709L220,39.99437500000002L220.20833333333334,38.25364250183105L220.41666666666669,34.992029342651364L220.625,37.538047790527344L220.83333333333331,29.826122283935547L221.04166666666666,38.350157852172856L221.25,41.7967825317383L221.45833333333334,33.93637657165527L221.66666666666669,35.51165321350098L221.875,35.834172286987325L222.08333333333331,31.672876358032227L222.29166666666666,37.12426895141601L222.5,36.097134857177736L222.70833333333334,40.41290695190429L222.91666666666669,35.93464630126954L223.125,32.59625L223.33333333333331,36.74958106994629L223.54166666666666,50.563125L223.75,36.64292121887209L223.95833333333334,34.6563237762451L224.16666666666666,36.134616546630866L224.375,37.69547088623045L224.58333333333334,35.277453765869126L224.79166666666666,46.15020606994631L225,35.097820053100605L225.20833333333334,90.21924133300782L225.41666666666666,39.26669380187988L225.625,30.282251358032227L225.83333333333334,40.27022529602053L226.04166666666666,36.79052574157714L226.25,35.498466720581035L226.45833333333334,40.119531249999994L226.66666666666666,36.02274864196778L226.875,34.631166229248066L227.08333333333334,30.91637771606446L227.29166666666666,41.522697677612285L227.5,36.048476562499985L227.70833333333334,77.77020065307617L227.91666666666666,39.353254776000995L228.125,37.72448524475098L228.33333333333334,61.928286209106446L228.54166666666666,103.63793399810791L228.75,35.968644638061505L228.95833333333334,29.637002716064472" style="fill: none;" fill="none"></path></g></g></g></g></g></g><g transform="translate(80, 178)" clip-path="url(#clip_1)"><clipPath id="clip_1"><rect width="250" height="21"></rect></clipPath><g><g><line x1="0" y1="0" x2="0" y2="5" style="visibility: inherit;" fill="rgb(0, 0, 0)" stroke="rgb(204, 204, 204)" stroke-width="1px"></line><line x1="20.833333333333332" y1="0" x2="20.833333333333332" y2="5" style="visibility: inherit;" fill="rgb(0, 0, 0)" stroke="rgb(204, 204, 204)" stroke-width="1px"></line><line x1="41.666666666666664" y1="0" x2="41.666666666666664" y2="5" style="visibility: inherit;" fill="rgb(0, 0, 0)" stroke="rgb(204, 204, 204)" stroke-width="1px"></line><line x1="62.5" y1="0" x2="62.5" y2="5" style="visibility: inherit;" fill="rgb(0, 0, 0)" stroke="rgb(204, 204, 204)" stroke-width="1px"></line><line x1="83.33333333333333" y1="0" x2="83.33333333333333" y2="5" style="visibility: inherit;" fill="rgb(0, 0, 0)" stroke="rgb(204, 204, 204)" stroke-width="1px"></line><line x1="104.16666666666667" y1="0" x2="104.16666666666667" y2="5" style="visibility: inherit;" fill="rgb(0, 0, 0)" stroke="rgb(204, 204, 204)" stroke-width="1px"></line><line x1="125" y1="0" x2="125" y2="5" style="visibility: inherit;" fill="rgb(0, 0, 0)" stroke="rgb(204, 204, 204)" stroke-width="1px"></line><line x1="145.83333333333334" y1="0" x2="145.83333333333334" y2="5" style="visibility: inherit;" fill="rgb(0, 0, 0)" stroke="rgb(204, 204, 204)" stroke-width="1px"></line><line x1="166.66666666666666" y1="0" x2="166.66666666666666" y2="5" style="visibility: inherit;" fill="rgb(0, 0, 0)" stroke="rgb(204, 204, 204)" stroke-width="1px"></line><line x1="187.5" y1="0" x2="187.5" y2="5" style="visibility: inherit;" fill="rgb(0, 0, 0)" stroke="rgb(204, 204, 204)" stroke-width="1px"></line><line x1="208.33333333333334" y1="0" x2="208.33333333333334" y2="5" style="visibility: inherit;" fill="rgb(0, 0, 0)" stroke="rgb(204, 204, 204)" stroke-width="1px"></line><line x1="229.16666666666666" y1="0" x2="229.16666666666666" y2="5" style="visibility: inherit;" fill="rgb(0, 0, 0)" stroke="rgb(204, 204, 204)" stroke-width="1px"></line><line x1="250" y1="0" x2="250" y2="5" style="visibility: inherit;" fill="rgb(0, 0, 0)" stroke="rgb(204, 204, 204)" stroke-width="1px"></line></g><g transform="translate(0, 8)"><text x="0" y="0" dx="0em" dy="0.95em" style="text-anchor: middle; visibility: hidden; font-family: &quot;Helvetica Neue&quot;, sans-serif; font-size: 12px; font-weight: 200;" fill="rgb(50, 49, 63)" stroke="none" stroke-width="1px">-100.0</text><text x="20.833333333333332" y="0" dx="0em" dy="0.95em" style="text-anchor: middle; visibility: inherit; font-family: &quot;Helvetica Neue&quot;, sans-serif; font-size: 12px; font-weight: 200;" fill="rgb(50, 49, 63)" stroke="none" stroke-width="1px">0.000</text><text x="41.666666666666664" y="0" dx="0em" dy="0.95em" style="text-anchor: middle; visibility: hidden; font-family: &quot;Helvetica Neue&quot;, sans-serif; font-size: 12px; font-weight: 200;" fill="rgb(50, 49, 63)" stroke="none" stroke-width="1px">100.0</text><text x="62.5" y="0" dx="0em" dy="0.95em" style="text-anchor: middle; visibility: inherit; font-family: &quot;Helvetica Neue&quot;, sans-serif; font-size: 12px; font-weight: 200;" fill="rgb(50, 49, 63)" stroke="none" stroke-width="1px">200.0</text><text x="83.33333333333333" y="0" dx="0em" dy="0.95em" style="text-anchor: middle; visibility: hidden; font-family: &quot;Helvetica Neue&quot;, sans-serif; font-size: 12px; font-weight: 200;" fill="rgb(50, 49, 63)" stroke="none" stroke-width="1px">300.0</text><text x="104.16666666666667" y="0" dx="0em" dy="0.95em" style="text-anchor: middle; visibility: inherit; font-family: &quot;Helvetica Neue&quot;, sans-serif; font-size: 12px; font-weight: 200;" fill="rgb(50, 49, 63)" stroke="none" stroke-width="1px">400.0</text><text x="125" y="0" dx="0em" dy="0.95em" style="text-anchor: middle; visibility: hidden; font-family: &quot;Helvetica Neue&quot;, sans-serif; font-size: 12px; font-weight: 200;" fill="rgb(50, 49, 63)" stroke="none" stroke-width="1px">500.0</text><text x="145.83333333333334" y="0" dx="0em" dy="0.95em" style="text-anchor: middle; visibility: inherit; font-family: &quot;Helvetica Neue&quot;, sans-serif; font-size: 12px; font-weight: 200;" fill="rgb(50, 49, 63)" stroke="none" stroke-width="1px">600.0</text><text x="166.66666666666666" y="0" dx="0em" dy="0.95em" style="text-anchor: middle; visibility: hidden; font-family: &quot;Helvetica Neue&quot;, sans-serif; font-size: 12px; font-weight: 200;" fill="rgb(50, 49, 63)" stroke="none" stroke-width="1px">700.0</text><text x="187.5" y="0" dx="0em" dy="0.95em" style="text-anchor: middle; visibility: inherit; font-family: &quot;Helvetica Neue&quot;, sans-serif; font-size: 12px; font-weight: 200;" fill="rgb(50, 49, 63)" stroke="none" stroke-width="1px">800.0</text><text x="208.33333333333334" y="0" dx="0em" dy="0.95em" style="text-anchor: middle; visibility: hidden; font-family: &quot;Helvetica Neue&quot;, sans-serif; font-size: 12px; font-weight: 200;" fill="rgb(50, 49, 63)" stroke="none" stroke-width="1px">900.0</text><text x="229.16666666666666" y="0" dx="0em" dy="0.95em" style="text-anchor: middle; visibility: inherit; font-family: &quot;Helvetica Neue&quot;, sans-serif; font-size: 12px; font-weight: 200;" fill="rgb(50, 49, 63)" stroke="none" stroke-width="1px">1.000k</text><text x="250" y="0" dx="0em" dy="0.95em" style="text-anchor: middle; visibility: hidden; font-family: &quot;Helvetica Neue&quot;, sans-serif; font-size: 12px; font-weight: 200;" fill="rgb(50, 49, 63)" stroke="none" stroke-width="1px">1.100k</text></g><line x1="0" y1="0" x2="250" y2="0" fill="rgb(0, 0, 0)" stroke="rgb(204, 204, 204)" stroke-width="1px"></line></g></g></g></g></svg>